<?xml version="1.0" encoding="UTF-8" standalone="no"?>
<svg
   xmlns:dc="http://purl.org/dc/elements/1.1/"
   xmlns:cc="http://creativecommons.org/ns#"
   xmlns:rdf="http://www.w3.org/1999/02/22-rdf-syntax-ns#"
   xmlns:svg="http://www.w3.org/2000/svg"
   xmlns="http://www.w3.org/2000/svg"
   viewBox="0 0 1122.52 793.70135"
   height="793.70135"
   width="1122.52"
   xml:space="preserve"
   id="svg2"
   version="1.1"><metadata
     id="metadata8"><rdf:RDF><cc:Work
         rdf:about=""><dc:format>image/svg+xml</dc:format><dc:type
           rdf:resource="http://purl.org/dc/dcmitype/StillImage" /></cc:Work></rdf:RDF></metadata><defs
     id="defs6"><clipPath
       id="clipPath18"
       clipPathUnits="userSpaceOnUse"><path
         id="path16"
         d="M 0,595.276 H 841.89 V 0 H 0 Z" /></clipPath></defs><g
     transform="matrix(1.3333333,0,0,-1.3333333,0,793.70133)"
     id="g10"><g
       id="g12"><g
         clip-path="url(#clipPath18)"
         id="g14"><g
           transform="translate(388.1474,335.8957)"
           id="g20"><path
             id="path22"
             style="fill:#2c2f4e;fill-opacity:1;fill-rule:evenodd;stroke:none"
             d="m 0,0 c -3.003,-1.262 -4.715,-2.714 -4.715,-4.259 0,-4.862 16.917,-8.802 37.786,-8.802 20.868,0 37.785,3.94 37.785,8.802 0,0.149 -0.017,0.297 -0.048,0.445 v 0 l -0.001,0.008 -0.001,0.003 -2.565,12.002 C 82.658,5.192 91.996,0.384 91.996,-5.036 c 0,-9.11 -26.382,-16.494 -58.926,-16.494 -32.543,0 -58.926,7.384 -58.926,16.494 0,5.874 10.971,11.03 27.488,13.952 L 8.349,45.6 18.238,56.511 v 14.322 l 56.944,28.301 -21.141,-35.803 6.138,-9.548 -7.502,-7.842 8.524,-10.912 5.41,-37.524 c 0.03,-0.107 0.046,-0.216 0.046,-0.325 0,-3.39 -15.037,-6.137 -33.586,-6.137 -18.55,0 -33.588,2.747 -33.588,6.137 0,0.136 0.027,0.27 0.074,0.403 z" /></g><path
           id="path24"
           style="fill:#4f4e9a;fill-opacity:1;fill-rule:evenodd;stroke:none"
           d="m 398.047,352.767 h 6.81 v 6.81 h -6.81 z" /><path
           id="path26"
           style="fill:#52c0d8;fill-opacity:1;fill-rule:evenodd;stroke:none"
           d="m 391.236,352.767 h 6.809 v 6.81 h -6.809 z" /><path
           id="path28"
           style="fill:#72c8dd;fill-opacity:1;fill-rule:evenodd;stroke:none"
           d="m 377.618,352.767 h 6.809 v 6.81 h -6.809 z" /><path
           id="path30"
           style="fill:#2c2f4e;fill-opacity:1;fill-rule:evenodd;stroke:none"
           d="m 384.426,359.578 h 6.81 v 6.81 h -6.81 z" /><path
           id="path32"
           style="fill:#3fb2e7;fill-opacity:1;fill-rule:evenodd;stroke:none"
           d="m 370.806,366.387 h 6.81 v 6.81 h -6.81 z" /><path
           id="path34"
           style="fill:#72c8dd;fill-opacity:1;fill-rule:evenodd;stroke:none"
           d="m 398.047,366.387 h 6.81 v 6.81 h -6.81 z" /><path
           id="path36"
           style="fill:#4ebfd6;fill-opacity:1;fill-rule:evenodd;stroke:none"
           d="m 391.236,366.387 h 6.809 v 6.81 h -6.809 z" /><path
           id="path38"
           style="fill:#4f4e9a;fill-opacity:1;fill-rule:evenodd;stroke:none"
           d="m 391.236,373.197 h 6.809 v 6.81 h -6.809 z" /><path
           id="path40"
           style="fill:#4f4e9a;fill-opacity:1;fill-rule:evenodd;stroke:none"
           d="m 377.617,380.008 h 6.81 v 6.81 h -6.81 z" /><path
           id="path42"
           style="fill:#2d3052;fill-opacity:1;fill-rule:evenodd;stroke:none"
           d="m 411.667,380.008 h 6.81 v 6.81 h -6.81 z" /><path
           id="path44"
           style="fill:#72c8dd;fill-opacity:1;fill-rule:evenodd;stroke:none"
           d="m 418.477,373.197 h 6.81 v 6.81 h -6.81 z" /><path
           id="path46"
           style="fill:#4f4e9a;fill-opacity:1;fill-rule:evenodd;stroke:none"
           d="m 425.288,366.387 h 6.81 v 6.81 h -6.81 z" /><path
           id="path48"
           style="fill:#3fb2e7;fill-opacity:1;fill-rule:evenodd;stroke:none"
           d="m 391.236,393.628 h 6.81 v 6.809 h -6.81 z" /><g
           transform="translate(398.0472,359.5778)"
           id="g50"><path
             id="path52"
             style="fill:#ffffff;fill-opacity:1;fill-rule:evenodd;stroke:none"
             d="M 0,0 -0.001,6.809 -4.538,6.81 H -6.811 V 0 Z" /></g><path
           id="path54"
           style="fill:#ffffff;fill-opacity:1;fill-rule:evenodd;stroke:none"
           d="m 411.667,359.578 h 6.81 v 6.81 h -6.81 z" /><path
           id="path56"
           style="fill:#ffffff;fill-opacity:1;fill-rule:evenodd;stroke:none"
           d="m 418.477,345.957 h 6.81 v 6.81 h -6.81 z" /><g
           transform="translate(234.1092,220.969)"
           id="g58"><path
             id="path60"
             style="fill:#2c2f4e;fill-opacity:1;fill-rule:nonzero;stroke:none"
             d="M 0,0 H -13.944 L -24.696,28.979 -35.112,0 h -13.776 l -22.596,60.479 h 18.648 l 7.812,-21.251 c 0.727,-2.352 1.33,-4.718 1.806,-7.098 0.475,-2.381 0.937,-4.692 1.386,-6.93 l 11.172,35.279 h 11.844 L -7.308,25.2 c 0.448,2.352 0.952,4.717 1.512,7.098 0.559,2.38 1.176,4.83 1.848,7.349 L 3.36,60.479 h 18.648 z" /></g><path
           id="path62"
           style="fill:#2c2f4e;fill-opacity:1;fill-rule:nonzero;stroke:none"
           d="m 290.305,281.449 h 17.052 v -60.563 h -17.052 z" /><g
           transform="translate(345.66,281.4485)"
           id="g64"><path
             id="path66"
             style="fill:#2c2f4e;fill-opacity:1;fill-rule:nonzero;stroke:none"
             d="M 0,0 H 48.552 V -4.872 L 22.092,-45.779 H 49.224 V -60.563 H -1.428 v 5.375 L 25.62,-13.859 H 0 Z" /></g><g
           transform="translate(460.6551,264.4807)"
           id="g68"><path
             id="path70"
             style="fill:#2c2f4e;fill-opacity:1;fill-rule:nonzero;stroke:none"
             d="M 0,0 -7.812,-19.32 H 7.729 Z m 13.524,-33.684 h -27.132 l -3.948,-9.912 H -35.7 L -8.568,16.968 H 8.736 L 35.784,-43.596 H 17.473 Z" /></g><g
           transform="translate(547.0076,267.7571)"
           id="g72"><path
             id="path74"
             style="fill:#2c2f4e;fill-opacity:1;fill-rule:nonzero;stroke:none"
             d="m 0,0 v -14.532 h 12.6 c 2.296,0 3.961,0.699 4.998,2.099 1.035,1.4 1.553,3.052 1.553,4.956 0,0.953 -0.139,1.876 -0.42,2.773 -0.28,0.894 -0.7,1.693 -1.259,2.393 -0.561,0.701 -1.26,1.26 -2.1,1.681 C 14.531,-0.21 13.551,0 12.432,0 Z m 38.976,-46.872 h -18.9 L 5.964,-27.217 H 0 v -19.655 h -17.137 v 60.563 h 29.569 c 3.864,0 7.279,-0.574 10.248,-1.721 2.967,-1.149 5.43,-2.689 7.391,-4.62 1.96,-1.932 3.445,-4.159 4.452,-6.678 1.008,-2.521 1.513,-5.124 1.513,-7.813 0,-1.847 -0.197,-3.64 -0.589,-5.376 -0.391,-1.736 -1.064,-3.374 -2.015,-4.914 -0.953,-1.54 -2.255,-2.981 -3.907,-4.325 -1.652,-1.345 -3.766,-2.577 -6.341,-3.696 l 15.792,-20.412 z" /></g><g
           transform="translate(639.1541,235.3333)"
           id="g76"><path
             id="path78"
             style="fill:#2c2f4e;fill-opacity:1;fill-rule:nonzero;stroke:none"
             d="m 0,0 h 8.988 c 2.688,0 4.969,0.462 6.846,1.386 1.876,0.924 3.402,2.155 4.578,3.695 1.177,1.54 2.017,3.304 2.521,5.292 0.504,1.987 0.755,4.018 0.755,6.091 0,2.07 -0.281,4.045 -0.839,5.922 -0.561,1.875 -1.429,3.513 -2.605,4.914 -1.176,1.398 -2.687,2.505 -4.536,3.317 -1.848,0.812 -4.088,1.219 -6.72,1.219 H 0 Z m 8.988,46.115 c 5.376,0 10.038,-0.784 13.987,-2.351 3.948,-1.569 7.237,-3.697 9.87,-6.384 2.631,-2.689 4.591,-5.838 5.88,-9.45 1.287,-3.613 1.931,-7.491 1.931,-11.634 0,-4.146 -0.63,-8.079 -1.889,-11.803 -1.26,-3.724 -3.193,-6.986 -5.796,-9.786 -2.605,-2.801 -5.895,-5.026 -9.87,-6.678 -3.978,-1.652 -8.681,-2.477 -14.113,-2.477 h -25.956 v 60.563 z" /></g><g
           transform="translate(302.4018,167.4423)"
           id="g80"><path
             id="path82"
             style="fill:#1d1d1d;fill-opacity:1;fill-rule:nonzero;stroke:none"
             d="M 0,0 -4.137,9.373 -8.273,0 Z m 2.156,-4.885 -1.694,3.784 h -9.197 l -1.673,-3.784 h -1.276 l 6.909,15.403 h 1.298 L 3.432,-4.885 Z" /></g><g
           transform="translate(323.7202,177.9599)"
           id="g84"><path
             id="path86"
             style="fill:#1d1d1d;fill-opacity:1;fill-rule:nonzero;stroke:none"
             d="m 0,0 v -9.571 c 0,-8.054 -11.794,-8.075 -11.794,0 V 0 h 1.166 v -9.571 c 0,-6.623 9.461,-6.602 9.461,0 l 0,9.571 z" /></g><g
           transform="translate(336.6103,176.8817)"
           id="g88"><path
             id="path90"
             style="fill:#1d1d1d;fill-opacity:1;fill-rule:nonzero;stroke:none"
             d="M 0,0 H -5.566 V 1.056 H 6.755 V 0 H 1.188 V -14.324 H 0 Z" /></g><g
           transform="translate(351.3935,170.2587)"
           id="g92"><path
             id="path94"
             style="fill:#1d1d1d;fill-opacity:1;fill-rule:nonzero;stroke:none"
             d="m 0,0 c 0.022,-3.477 2.223,-6.865 6.601,-6.865 4.401,0 6.623,3.388 6.623,6.865 0,3.564 -2.2,6.843 -6.623,6.843 C 2.179,6.843 -0.022,3.63 0,0 m 14.368,-0.022 c -0.022,-4.048 -2.596,-7.943 -7.767,-7.943 -5.171,0 -7.767,3.916 -7.767,7.987 0,4.137 2.574,7.921 7.767,7.921 5.193,0 7.789,-3.806 7.767,-7.965" /></g><g
           transform="translate(387.2993,176.2436)"
           id="g96"><path
             id="path98"
             style="fill:#1d1d1d;fill-opacity:1;fill-rule:nonzero;stroke:none"
             d="M 0,0 -5.897,-9.021 H -6.293 L -12.234,0 v -13.686 h -1.188 V 1.716 h 1.408 l 5.897,-8.977 5.831,8.977 H 1.166 V -13.686 H 0 Z" /></g><g
           transform="translate(407.2309,167.4423)"
           id="g100"><path
             id="path102"
             style="fill:#1d1d1d;fill-opacity:1;fill-rule:nonzero;stroke:none"
             d="M 0,0 -4.137,9.373 -8.273,0 Z m 2.156,-4.885 -1.694,3.784 h -9.197 l -1.673,-3.784 h -1.276 l 6.909,15.403 h 1.298 L 3.432,-4.885 Z" /></g><g
           transform="translate(419.7695,176.8817)"
           id="g104"><path
             id="path106"
             style="fill:#1d1d1d;fill-opacity:1;fill-rule:nonzero;stroke:none"
             d="M 0,0 H -5.566 V 1.056 H 6.755 V 0 H 1.188 V -14.324 H 0 Z" /></g><path
           id="path108"
           style="fill:#1d1d1d;fill-opacity:1;fill-rule:nonzero;stroke:none"
           d="m 434.069,177.96 h 1.166 v -15.402 h -1.166 z" /><g
           transform="translate(454.332,174.9892)"
           id="g110"><path
             id="path112"
             style="fill:#1d1d1d;fill-opacity:1;fill-rule:nonzero;stroke:none"
             d="m 0,0 c -1.122,1.804 -2.927,2.068 -4.665,2.09 -1.804,0 -4.664,-0.66 -4.664,-3.124 0,-1.958 2.112,-2.42 4.708,-2.904 2.971,-0.573 6.051,-1.101 6.051,-4.423 -0.022,-3.477 -3.521,-4.313 -6.095,-4.313 -2.398,0 -5.126,0.99 -6.314,3.345 l 1.055,0.528 c 0.946,-1.871 3.367,-2.795 5.259,-2.795 1.893,0 4.907,0.529 4.907,3.257 0.022,2.31 -2.53,2.817 -5.06,3.3 -2.817,0.551 -5.7,1.122 -5.7,3.961 -0.066,3.257 3.323,4.268 5.853,4.268 2.2,0 4.115,-0.352 5.633,-2.618 z" /></g><g
           transform="translate(464.7148,170.8529)"
           id="g114"><path
             id="path116"
             style="fill:#1d1d1d;fill-opacity:1;fill-rule:nonzero;stroke:none"
             d="M 0,0 H 9.021 V -1.079 H 0 V -7.151 H 9.726 V -8.295 H -1.166 V 7.107 H 9.461 V 5.985 L 0,5.985 Z" /></g><g
           transform="translate(483.5468,169.5107)"
           id="g118"><path
             id="path120"
             style="fill:#1d1d1d;fill-opacity:1;fill-rule:nonzero;stroke:none"
             d="M 0,0 H 5.457 C 8.142,0 9.329,1.518 9.352,3.674 9.373,5.479 8.142,7.349 5.589,7.349 H 0 Z M 11.09,-6.953 H 9.527 L 4.202,-1.122 H 0 V -6.953 H -1.188 V 8.449 h 6.777 c 3.345,0 5.039,-2.398 5.06,-4.797 0.023,-2.508 -1.628,-4.708 -4.994,-4.708 z" /></g><path
           id="path122"
           style="fill:#1d1d1d;fill-opacity:1;fill-rule:nonzero;stroke:none"
           d="m 501.916,177.96 h 1.166 v -15.402 h -1.166 z" /><g
           transform="translate(512.2783,177.9599)"
           id="g124"><path
             id="path126"
             style="fill:#1d1d1d;fill-opacity:1;fill-rule:nonzero;stroke:none"
             d="M 0,0 10.363,-12.74 V 0 H 11.53 V -15.402 H 11.067 L 0.682,-2.685 v -12.717 h -1.188 l 0,15.402 z" /></g><g
           transform="translate(544.6425,175.1215)"
           id="g128"><path
             id="path130"
             style="fill:#1d1d1d;fill-opacity:1;fill-rule:nonzero;stroke:none"
             d="m 0,0 c -1.343,1.32 -3.213,1.98 -4.951,1.98 -4.511,0 -6.821,-3.3 -6.799,-6.865 0,-3.63 2.311,-6.755 6.799,-6.755 1.65,0 3.366,0.572 4.686,1.782 v 4.313 h -5.368 v 1.034 h 6.49 v -5.765 c -1.605,-1.606 -3.52,-2.486 -5.808,-2.486 -5.237,0 -7.944,3.652 -7.944,7.855 -0.021,4.819 3.257,7.965 7.944,7.965 2.024,0 4.07,-0.77 5.633,-2.31 z" /></g></g></g></g></svg>