<?xml version="1.0" encoding="UTF-8" standalone="no"?>
<svg
   xmlns:dc="http://purl.org/dc/elements/1.1/"
   xmlns:cc="http://creativecommons.org/ns#"
   xmlns:rdf="http://www.w3.org/1999/02/22-rdf-syntax-ns#"
   xmlns:svg="http://www.w3.org/2000/svg"
   xmlns="http://www.w3.org/2000/svg"
   viewBox="0 0 472.44135 472.44135"
   height="472.44135"
   width="472.44135"
   xml:space="preserve"
   id="svg2"
   version="1.1"><metadata
     id="metadata8"><rdf:RDF><cc:Work
         rdf:about=""><dc:format>image/svg+xml</dc:format><dc:type
           rdf:resource="http://purl.org/dc/dcmitype/StillImage" /></cc:Work></rdf:RDF></metadata><defs
     id="defs6"><clipPath
       id="clipPath18"
       clipPathUnits="userSpaceOnUse"><path
         id="path16"
         d="M 0,354.331 H 354.331 V 0 H 0 Z" /></clipPath></defs><g
     transform="matrix(1.3333333,0,0,-1.3333333,0,472.44133)"
     id="g10"><g
       id="g12"><g
         clip-path="url(#clipPath18)"
         id="g14"><g
           transform="translate(144.1649,138.617)"
           id="g20"><path
             id="path22"
             style="fill:#2c2f4e;fill-opacity:1;fill-rule:evenodd;stroke:none"
             d="m 0,0 c -3.003,-1.262 -4.715,-2.714 -4.715,-4.259 0,-4.861 16.917,-8.802 37.786,-8.802 20.868,0 37.785,3.941 37.785,8.802 0,0.149 -0.017,0.297 -0.048,0.445 v 0 l -0.001,0.008 -0.001,0.003 -2.565,12.002 C 82.658,5.192 91.996,0.384 91.996,-5.036 c 0,-9.11 -26.382,-16.494 -58.926,-16.494 -32.543,0 -58.926,7.384 -58.926,16.494 0,5.874 10.971,11.03 27.488,13.952 L 8.349,45.6 18.238,56.511 v 14.322 l 56.944,28.301 -21.141,-35.803 6.138,-9.548 -7.502,-7.842 8.524,-10.912 5.41,-37.524 c 0.03,-0.107 0.046,-0.216 0.046,-0.325 0,-3.39 -15.037,-6.137 -33.586,-6.137 -18.55,0 -33.588,2.747 -33.588,6.137 0,0.136 0.027,0.27 0.074,0.403 z" /></g><path
           id="path24"
           style="fill:#4f4e9a;fill-opacity:1;fill-rule:evenodd;stroke:none"
           d="m 154.065,155.488 h 6.81 v 6.81 h -6.81 z" /><path
           id="path26"
           style="fill:#52c0d8;fill-opacity:1;fill-rule:evenodd;stroke:none"
           d="m 147.254,155.488 h 6.809 v 6.81 h -6.809 z" /><path
           id="path28"
           style="fill:#72c8dd;fill-opacity:1;fill-rule:evenodd;stroke:none"
           d="m 133.635,155.488 h 6.809 v 6.81 h -6.809 z" /><path
           id="path30"
           style="fill:#2c2f4e;fill-opacity:1;fill-rule:evenodd;stroke:none"
           d="m 140.444,162.299 h 6.81 v 6.81 h -6.81 z" /><path
           id="path32"
           style="fill:#3fb2e7;fill-opacity:1;fill-rule:evenodd;stroke:none"
           d="m 126.824,169.108 h 6.81 v 6.81 h -6.81 z" /><path
           id="path34"
           style="fill:#72c8dd;fill-opacity:1;fill-rule:evenodd;stroke:none"
           d="m 154.065,169.108 h 6.81 v 6.81 h -6.81 z" /><path
           id="path36"
           style="fill:#4ebfd6;fill-opacity:1;fill-rule:evenodd;stroke:none"
           d="m 147.254,169.108 h 6.809 v 6.81 h -6.809 z" /><path
           id="path38"
           style="fill:#4f4e9a;fill-opacity:1;fill-rule:evenodd;stroke:none"
           d="m 147.254,175.918 h 6.809 v 6.81 h -6.809 z" /><path
           id="path40"
           style="fill:#4f4e9a;fill-opacity:1;fill-rule:evenodd;stroke:none"
           d="m 133.635,182.729 h 6.81 v 6.81 h -6.81 z" /><path
           id="path42"
           style="fill:#2d3052;fill-opacity:1;fill-rule:evenodd;stroke:none"
           d="m 167.685,182.729 h 6.81 v 6.81 h -6.81 z" /><path
           id="path44"
           style="fill:#72c8dd;fill-opacity:1;fill-rule:evenodd;stroke:none"
           d="m 174.495,175.918 h 6.81 v 6.81 h -6.81 z" /><path
           id="path46"
           style="fill:#4f4e9a;fill-opacity:1;fill-rule:evenodd;stroke:none"
           d="m 181.305,169.108 h 6.81 v 6.81 h -6.81 z" /><path
           id="path48"
           style="fill:#3fb2e7;fill-opacity:1;fill-rule:evenodd;stroke:none"
           d="m 147.254,196.349 h 6.81 v 6.809 h -6.81 z" /><g
           transform="translate(154.0647,162.2992)"
           id="g50"><path
             id="path52"
             style="fill:#ffffff;fill-opacity:1;fill-rule:evenodd;stroke:none"
             d="M 0,0 -0.001,6.809 -4.538,6.81 H -6.811 V 0 Z" /></g><path
           id="path54"
           style="fill:#ffffff;fill-opacity:1;fill-rule:evenodd;stroke:none"
           d="m 167.685,162.299 h 6.81 v 6.81 h -6.81 z" /><path
           id="path56"
           style="fill:#ffffff;fill-opacity:1;fill-rule:evenodd;stroke:none"
           d="m 174.495,148.678 h 6.81 v 6.81 h -6.81 z" /></g></g></g></svg>